# xmcd
#
# Track frame offsets: 
#        150
#        15149
#        26515
#        41831
#        54656
#        67003
#        80204
#        94160
#        104756
#        121750
#        143967
#        155534
#        170356
#        182206
#        198807
#        208481
#        222220
#        235108
#        249222
#        260440
#
# Disc length: 3655 seconds
#
# Revision: 6
# Processed by: cddbd v1.5.2PL0 Copyright (c) Steve Scherf et al.
# Submitted via: ExactAudioCopy v1.0b4
#
DISCID=1e0e4514
DTITLE=Various Artist - Memories are made of this [CD 8)
DYEAR=1999
DGENRE=Oldies
TTITLE0=Duke Ellington - Duke Ellington - Don't get around much anymor
TTITLE0=e
TTITLE1=Bobby Darin - Bobby Darin - Standing on the corner
TTITLE2=Benny Goodman - Benny Goodman - When I grow too old to dream
TTITLE3=Alma Cogan - Alma Cogan - Love me again
TTITLE4=Dean Martin - Dean Martin - All I do is dream of you
TTITLE5=Matt Monro - Matt Monro - My kind of girl
TTITLE6=Bing Crosby and Grace Kelly - Bing Crosby and Grace Kelly - True
TTITLE6=love
TTITLE7=Tony Bennett - Tony Bennett - You took advantage of me
TTITLE8=Keeley Smith - Keeley Smith - It's magic
TTITLE9=June Christy - June Christy - Bewitched, bothered and bewilder
TTITLE9=ed
TTITLE10=Vic Damone - Vic Damone - I could write a book
TTITLE11=Kay Starr - Kay Starr - When a woman loves a man
TTITLE12=Vikki Carr - Vikki Carr - You don't have to say you love me
TTITLE13=Glen Campbell - Glen Campbell - You win again
TTITLE14=Michael Holliday - Michael Holliday - I wonder who's kissing 
TTITLE14=her now
TTITLE15=Dean Martin - Dean Martin - You belong to me
TTITLE16=Julie London - Julie London - Love letters
TTITLE17=Tony Bennett - Tony Bennett - This funny world
TTITLE18=Peggy Lee - Peggy Lee - I wanna be around
TTITLE19=Benny Goodman - Benny Goodman - Don't be that way
EXTD=Year: 1999   [CD 8 from 10]\n\n\n\n\n\n                          
EXTD=                   www.diskyentertainment.com
EXTT0=
EXTT1=
EXTT2=
EXTT3=
EXTT4=
EXTT5=
EXTT6=
EXTT7=
EXTT8=
EXTT9=
EXTT10=
EXTT11=
EXTT12=
EXTT13=
EXTT14=
EXTT15=
EXTT16=
EXTT17=
EXTT18=
EXTT19=
PLAYORDER=
